<?xml version="1.0" standalone="no"?><!DOCTYPE svg PUBLIC "-//W3C//DTD SVG 1.1//EN" "http://www.w3.org/Graphics/SVG/1.1/DTD/svg11.dtd"><svg t="1594625698398" class="icon" viewBox="0 0 1024 1024" version="1.1" xmlns="http://www.w3.org/2000/svg" p-id="3852" xmlns:xlink="http://www.w3.org/1999/xlink" width="200" height="200"><defs><style type="text/css"></style></defs><path d="M138.353724 138.901057h747.292552c22.988003 0 41.47571 18.609336 41.47571 41.47571 0 22.988003-18.609336 41.47571-41.47571 41.47571H138.353724c-22.988003 0-41.47571-18.609336-41.47571-41.47571 0-22.988003 18.609336-41.47571 41.47571-41.47571z m332.170566-83.073049h83.073049c22.988003 0 41.47571 18.609336 41.47571 41.47571 0 22.988003-18.609336 41.47571-41.47571 41.475709h-83.073049c-22.988003 0-41.47571-18.609336-41.475709-41.475709s18.487706-41.47571 41.475709-41.47571zM262.902482 803.120561c0 22.014966 8.757335 43.178525 24.32593 58.747119 15.568595 15.568595 36.732153 24.325929 58.74712 24.32593h332.170566c22.014966 0 43.178525-8.757335 58.74712-24.32593 15.568595-15.568595 24.325929-36.732153 24.325929-58.747119V304.925526h83.073049v498.195035c0 91.708754-74.315714 166.024468-166.024468 166.024468H345.975532c-91.708754 0-166.024468-74.315714-166.024469-166.024468V304.925526h83.073049v498.195035z m166.146099-456.719326c22.988003 0 41.47571 18.609336 41.475709 41.47571V720.047512c0 22.988003-18.609336 41.47571-41.475709 41.475709-22.988003 0-41.47571-18.609336-41.47571-41.475709V387.998575c0-11.068298 4.378667-21.528448 12.162965-29.312745 7.662668-7.905927 18.244447-12.284594 29.312745-12.284595z m166.024468 0c22.988003 0 41.47571 18.609336 41.47571 41.47571V720.047512c0 22.988003-18.609336 41.47571-41.47571 41.475709s-41.47571-18.609336-41.47571-41.475709V387.998575c0-22.988003 18.487706-41.597339 41.47571-41.59734z m0 0" fill="#d81e06" p-id="3853"></path></svg>